<svg version="1.1" id="Layer_1"
	xmlns="http://www.w3.org/2000/svg"
	xmlns:xlink="http://www.w3.org/1999/xlink" x="0px" y="0px" width="100%" viewBox="0 0 612 408" enable-background="new 0 0 612 408" xml:space="preserve">
	<path fill="#000000" opacity="0" stroke="none" d="
M402.000000,409.000000 
	C268.032684,409.000000 134.565399,409.000000 1.049044,409.000000 
	C1.049044,273.066010 1.049044,137.132019 1.049044,1.099007 
	C204.883987,1.099007 408.768036,1.099007 612.826050,1.099007 
	C612.826050,136.999817 612.826050,272.999878 612.826050,409.000000 
	C542.798645,409.000000 472.649323,409.000000 402.000000,409.000000 
M124.647469,158.868790 
	C123.415329,159.894012 122.183189,160.919235 120.480850,162.119034 
	C120.299843,162.391724 120.118835,162.664413 119.314987,163.172531 
	C117.837082,165.106415 116.359184,167.040314 114.271393,169.303482 
	C113.156639,171.850449 112.041893,174.397430 110.248672,177.235413 
	C105.977753,186.424210 104.506577,195.939987 107.548004,205.755692 
	C109.082909,210.709290 111.225098,215.474716 113.069656,220.886536 
	C113.646454,221.562012 114.223251,222.237473 114.862701,223.118881 
	C114.862701,223.118881 115.067696,223.184570 115.064064,223.874130 
	C117.956429,227.473801 120.848793,231.073456 122.896255,233.621613 
	C120.404427,238.912262 117.852211,243.447067 116.137955,248.279160 
	C114.980064,251.542999 117.409927,253.392899 120.515167,252.896927 
	C124.171295,252.312973 127.801567,251.215363 131.269714,249.887711 
	C136.620865,247.839188 141.824722,245.405945 147.825699,243.051132 
	C157.575287,243.043167 167.336624,243.310699 177.068863,242.895737 
	C181.134125,242.722412 185.137527,241.098511 189.891083,239.984467 
	C207.436234,233.417297 220.878860,214.944519 218.961288,194.124023 
	C217.652802,188.717667 216.344299,183.311325 215.014313,177.180115 
	C210.220306,166.599884 203.036987,158.416992 191.283813,153.816391 
	C186.848114,152.400894 182.412430,150.985382 177.350037,149.019547 
	C167.920212,148.981171 158.490021,148.891830 149.061005,148.962006 
	C147.719589,148.972000 146.383926,149.756332 144.249161,150.053787 
	C137.444595,151.429672 130.926361,153.463364 125.294464,158.281921 
	C125.294464,158.281921 125.186844,158.561478 124.647469,158.868790 
M366.099915,187.386612 
	C366.032166,191.830643 365.815491,196.278809 365.938171,200.717575 
	C366.062927,205.231400 366.522034,209.735977 367.407898,214.807724 
	C369.648804,214.807724 371.889679,214.807724 374.044067,214.807724 
	C374.044067,209.715698 374.217285,205.214767 373.993500,200.733673 
	C373.785736,196.573807 376.450287,194.255753 379.322906,192.451904 
	C380.937714,191.437897 383.416595,191.799973 387.095673,191.345932 
	C385.199738,188.245605 383.801086,185.958435 382.402435,183.671265 
	C382.094360,184.224640 381.786285,184.778015 381.478210,185.331390 
	C378.178436,185.571243 374.874207,185.763138 371.580872,186.071472 
	C369.972321,186.222076 368.384064,186.589539 366.099915,187.386612 
M414.690704,214.662949 
	C414.856750,205.643539 415.040161,196.624313 415.145050,187.604187 
	C415.151245,187.072037 414.525543,186.532547 413.594849,185.567566 
	C410.133057,185.608688 406.622742,186.040527 403.218567,185.617798 
	C392.931549,184.340393 388.737579,186.787781 385.682190,196.418320 
	C382.672852,205.903641 389.413452,215.131210 399.261444,215.008636 
	C404.177948,214.947433 409.094452,214.887970 414.690704,214.662949 
M451.842865,214.947769 
	C455.228180,214.741547 455.019257,213.402191 452.995209,211.403564 
	C448.736816,207.198593 444.653625,202.802124 440.215576,198.797821 
	C436.919556,195.823914 436.019012,194.027603 440.278595,190.675903 
	C445.110840,186.873627 448.921875,181.773560 453.473358,176.921677 
	C448.933105,174.275223 445.199860,173.812393 441.718445,177.746078 
	C437.854248,182.112320 433.924255,186.420349 428.997406,191.892776 
	C428.997406,186.814331 428.958160,183.382401 429.006042,179.951675 
	C429.090118,173.929245 423.857300,176.704742 420.831207,174.180862 
	C420.831207,186.311066 420.826447,197.426010 420.833008,208.540955 
	C420.836914,215.188843 422.181885,216.141724 429.156250,214.066986 
	C429.156250,209.189957 429.156250,204.184494 429.156250,199.889923 
	C433.319885,203.625946 437.726959,207.091003 441.510468,211.138901 
	C444.260834,214.081436 447.097107,215.591995 451.842865,214.947769 
M241.543549,193.671890 
	C246.256744,195.465591 251.121384,196.956375 255.609619,199.200058 
	C257.440674,200.115387 258.455811,202.662979 259.842133,204.467941 
	C258.260468,205.613556 256.609283,207.799469 255.110931,207.699295 
	C251.409042,207.451797 247.800705,206.028198 244.104507,205.351913 
	C242.799820,205.113174 241.109207,205.294067 240.035461,205.976608 
	C239.039993,206.609390 237.822235,208.884964 238.100342,209.198959 
	C239.671921,210.973389 241.478638,213.296280 243.551682,213.714294 
	C248.043594,214.620071 252.746979,214.741135 257.360413,214.707474 
	C262.211456,214.672119 267.433319,210.586365 267.944550,206.990540 
	C269.033447,199.331665 266.878754,195.591507 260.154968,193.238541 
	C257.196503,192.203217 254.163406,191.242859 251.431152,189.757401 
	C250.044586,189.003586 248.366928,187.103775 248.448013,185.825272 
	C248.522614,184.648773 250.735718,182.757660 252.080093,182.692413 
	C254.719711,182.564316 257.663971,182.964005 260.014954,184.106644 
	C262.891113,185.504547 264.732971,185.217804 266.145172,182.525604 
	C267.705383,179.551331 266.374573,177.845520 263.429382,176.944275 
	C262.322906,176.605682 261.308594,175.841385 260.192780,175.678574 
	C254.158508,174.798019 247.891693,173.183685 242.834763,178.267456 
	C238.492661,182.632599 239.438492,187.874222 241.543549,193.671890 
M270.195221,201.688385 
	C272.152985,213.233414 278.158142,215.795563 286.700287,214.916794 
	C293.804718,214.185898 298.769867,211.068939 299.540253,205.304703 
	C300.695557,196.660324 300.625031,192.589066 293.587769,187.789413 
	C288.011139,183.985931 282.305267,184.081375 276.480530,188.064529 
	C270.952026,191.845108 269.091064,195.798492 270.195221,201.688385 
M354.441559,214.341995 
	C356.115082,213.146713 358.031158,212.181381 359.420044,210.716248 
	C365.333130,204.478699 365.039001,195.232849 359.572571,190.161591 
	C351.713470,182.870682 347.448883,182.579575 339.050049,188.393982 
	C335.274750,191.007599 333.229492,194.062958 334.034821,198.559738 
	C334.750031,202.553345 335.258270,206.782806 337.039062,210.312164 
	C338.105804,212.426285 341.276855,214.128799 343.798309,214.693436 
	C346.920898,215.392700 350.350311,214.721863 354.441559,214.341995 
M330.664642,196.632217 
	C327.350922,185.362045 324.937225,183.936844 313.343201,186.174561 
	C312.339081,186.368347 311.152710,185.967621 310.124390,185.623718 
	C306.324554,184.352890 303.938354,185.638626 303.416382,189.573242 
	C303.094727,191.997910 303.324860,194.502762 303.385712,196.969666 
	C303.491516,201.258820 304.109161,205.596313 303.642670,209.817459 
	C303.324646,212.694855 303.503815,214.408737 306.539154,214.801453 
	C309.846436,215.229340 310.980927,213.347092 310.958588,210.333862 
	C310.931549,206.688583 311.127228,203.035934 310.958862,199.398849 
	C310.745453,194.788284 313.247314,192.489014 317.366150,192.130295 
	C322.030945,191.724045 322.630249,195.676971 322.889801,198.880417 
	C323.284790,203.755310 322.993195,208.685806 322.993195,213.964966 
	C328.848785,216.666458 331.001129,215.399261 330.989471,208.389664 
	C330.983398,204.735886 330.885468,201.082291 330.664642,196.632217 
M472.232269,208.773819 
	C474.273438,214.468674 477.653320,215.883575 485.843597,215.046875 
	C489.024536,214.721909 489.364471,212.822372 488.901520,210.592941 
	C488.469482,208.512436 487.617767,206.473343 484.528687,207.734192 
	C483.311829,208.230850 481.722809,207.815567 480.279907,207.815567 
	C480.279907,202.392807 480.279907,197.311371 480.279907,192.305038 
	C483.344604,191.369217 488.106476,193.529175 487.861298,188.093826 
	C487.573181,181.707428 482.306427,187.982178 480.120026,185.164352 
	C480.016144,182.912033 479.898285,180.355530 479.780792,177.808014 
	C474.815063,177.589859 470.530243,177.440155 471.014130,183.881668 
	C471.062317,184.522919 470.592285,185.410187 470.076965,185.843201 
	C469.034943,186.718796 467.796600,187.360809 466.639252,188.099167 
	C467.764038,189.777496 468.888855,191.455826 470.013641,193.134140 
	C470.310211,192.989517 470.606781,192.844894 470.903351,192.700272 
	C471.265961,197.782059 471.628540,202.863831 472.232269,208.773819 
M456.871368,203.586090 
	C456.802551,205.314163 456.686096,207.041992 456.677734,208.770355 
	C456.668701,210.636566 456.157715,213.750397 456.928101,214.122910 
	C458.818787,215.037140 461.549347,215.307785 463.482025,214.593185 
	C464.489655,214.220581 464.894135,211.224792 464.932465,209.400452 
	C465.072540,202.735184 464.990143,196.063446 464.867798,189.396408 
	C464.849060,188.376862 464.387787,186.668106 463.770874,186.483765 
	C461.666870,185.855042 459.396759,185.576767 457.202972,185.636841 
	C456.790771,185.648132 456.080139,187.843414 456.121033,189.009354 
	C456.281647,193.589142 456.687653,198.160339 456.871368,203.586090 
M458.859192,182.870102 
	C460.834015,182.065872 463.636810,181.770935 464.537811,180.306168 
	C465.348694,178.987976 464.657288,175.908585 463.516968,174.516510 
	C462.734589,173.561401 459.945526,173.743195 458.237122,174.163406 
	C455.087585,174.938095 455.096985,179.062759 458.859192,182.870102 
z"/>
	<path fill="#2CAEA5" opacity="1.000000" stroke="none" d="
M451.443878,214.953217 
	C447.097107,215.591995 444.260834,214.081436 441.510468,211.138901 
	C437.726959,207.091003 433.319885,203.625946 429.156250,199.889923 
	C429.156250,204.184494 429.156250,209.189957 429.156250,214.066986 
	C422.181885,216.141724 420.836914,215.188843 420.833008,208.540955 
	C420.826447,197.426010 420.831207,186.311066 420.831207,174.180862 
	C423.857300,176.704742 429.090118,173.929245 429.006042,179.951675 
	C428.958160,183.382401 428.997406,186.814331 428.997406,191.892776 
	C433.924255,186.420349 437.854248,182.112320 441.718445,177.746078 
	C445.199860,173.812393 448.933105,174.275223 453.473358,176.921677 
	C448.921875,181.773560 445.110840,186.873627 440.278595,190.675903 
	C436.019012,194.027603 436.919556,195.823914 440.215576,198.797821 
	C444.653625,202.802124 448.736816,207.198593 452.995209,211.403564 
	C455.019257,213.402191 455.228180,214.741547 451.443878,214.953217 
z"/>
	<path fill="#1C2839" opacity="1.000000" stroke="none" d="
M241.266113,193.379959 
	C239.438492,187.874222 238.492661,182.632599 242.834763,178.267456 
	C247.891693,173.183685 254.158508,174.798019 260.192780,175.678574 
	C261.308594,175.841385 262.322906,176.605682 263.429382,176.944275 
	C266.374573,177.845520 267.705383,179.551331 266.145172,182.525604 
	C264.732971,185.217804 262.891113,185.504547 260.014954,184.106644 
	C257.663971,182.964005 254.719711,182.564316 252.080093,182.692413 
	C250.735718,182.757660 248.522614,184.648773 248.448013,185.825272 
	C248.366928,187.103775 250.044586,189.003586 251.431152,189.757401 
	C254.163406,191.242859 257.196503,192.203217 260.154968,193.238541 
	C266.878754,195.591507 269.033447,199.331665 267.944550,206.990540 
	C267.433319,210.586365 262.211456,214.672119 257.360413,214.707474 
	C252.746979,214.741135 248.043594,214.620071 243.551682,213.714294 
	C241.478638,213.296280 239.671921,210.973389 238.100342,209.198959 
	C237.822235,208.884964 239.039993,206.609390 240.035461,205.976608 
	C241.109207,205.294067 242.799820,205.113174 244.104507,205.351913 
	C247.800705,206.028198 251.409042,207.451797 255.110931,207.699295 
	C256.609283,207.799469 258.260468,205.613556 259.842133,204.467957 
	C258.455811,202.662979 257.440674,200.115387 255.609619,199.200058 
	C251.121384,196.956375 246.256744,195.465591 241.266113,193.379959 
z"/>
	<path fill="#3C6BCC" opacity="1.000000" stroke="none" d="
M147.091034,243.135864 
	C141.824722,245.405945 136.620865,247.839188 131.269714,249.887711 
	C127.801567,251.215363 124.171295,252.312973 120.515167,252.896927 
	C117.409927,253.392899 114.980064,251.542999 116.137955,248.279160 
	C117.852211,243.447067 120.404427,238.912262 122.896255,233.621613 
	C120.848793,231.073456 117.956429,227.473801 115.386002,223.602173 
	C121.132309,226.850830 122.005386,226.712814 124.327957,222.127197 
	C127.229332,224.506760 130.617477,226.340103 132.158707,229.176880 
	C133.542892,231.724609 132.897720,235.374878 133.174805,238.881317 
	C138.042206,237.329300 142.978180,235.755432 148.278748,234.349228 
	C151.678177,234.847473 154.712997,235.178070 157.747803,235.508667 
	C157.899231,235.987762 158.050674,236.466858 158.202103,236.945938 
	C156.177124,237.949448 154.113770,238.883667 152.138702,239.977264 
	C150.404755,240.937317 148.769745,242.076050 147.091034,243.135864 
z"/>
	<path fill="#1C2839" opacity="1.000000" stroke="none" d="
M414.010925,214.827744 
	C409.094452,214.887970 404.177948,214.947433 399.261444,215.008636 
	C389.413452,215.131210 382.672852,205.903641 385.682190,196.418320 
	C388.737579,186.787781 392.931549,184.340393 403.218567,185.617798 
	C406.622742,186.040527 410.133057,185.608688 413.846161,186.249786 
	C414.068634,196.230591 414.039795,205.529160 414.010925,214.827744 
M402.089600,192.065933 
	C401.258942,192.067764 400.123505,191.719284 399.649780,192.131378 
	C397.469452,194.028336 394.123108,195.923508 393.758484,198.225372 
	C393.316895,201.013123 394.794098,204.789154 396.737640,206.995117 
	C397.782410,208.180984 401.984558,207.787048 403.990356,206.692169 
	C409.364624,203.758591 411.621796,198.041595 402.089600,192.065933 
z"/>
	<path fill="#1C2839" opacity="1.000000" stroke="none" d="
M270.286133,201.359558 
	C269.091064,195.798492 270.952026,191.845108 276.480530,188.064529 
	C282.305267,184.081375 288.011139,183.985931 293.587769,187.789413 
	C300.625031,192.589066 300.695557,196.660324 299.540253,205.304703 
	C298.769867,211.068939 293.804718,214.185898 286.700287,214.916794 
	C278.158142,215.795563 272.152985,213.233414 270.286133,201.359558 
M278.531677,203.942413 
	C280.463409,207.598434 283.886597,208.701294 287.350830,207.598862 
	C289.314545,206.973953 291.667114,204.543045 292.031342,202.587753 
	C292.671967,199.148590 292.591034,194.921265 288.370178,193.352371 
	C286.343872,192.599228 283.201111,192.351837 281.618958,193.427368 
	C278.429718,195.595367 276.496246,198.998917 278.531677,203.942413 
z"/>
	<path fill="#1C2839" opacity="1.000000" stroke="none" d="
M354.044373,214.492462 
	C350.350311,214.721863 346.920898,215.392700 343.798309,214.693436 
	C341.276855,214.128799 338.105804,212.426285 337.039062,210.312164 
	C335.258270,206.782806 334.750031,202.553345 334.034821,198.559738 
	C333.229492,194.062958 335.274750,191.007599 339.050049,188.393982 
	C347.448883,182.579575 351.713470,182.870682 359.572571,190.161591 
	C365.039001,195.232849 365.333130,204.478699 359.420044,210.716248 
	C358.031158,212.181381 356.115082,213.146713 354.044373,214.492462 
M344.975525,193.298203 
	C343.727570,195.359924 341.632263,197.354568 341.462311,199.501633 
	C341.280731,201.795700 342.261688,205.086655 343.938873,206.372757 
	C345.673767,207.703156 349.531281,208.230469 351.241608,207.160675 
	C353.715698,205.613129 356.385315,202.441971 356.658020,199.730774 
	C357.161987,194.720093 350.996094,191.344452 344.975525,193.298203 
z"/>
	<path fill="#1C2839" opacity="1.000000" stroke="none" d="
M330.746826,197.030411 
	C330.885468,201.082291 330.983398,204.735886 330.989471,208.389664 
	C331.001129,215.399261 328.848785,216.666458 322.993195,213.964966 
	C322.993195,208.685806 323.284790,203.755310 322.889801,198.880417 
	C322.630249,195.676971 322.030945,191.724045 317.366150,192.130295 
	C313.247314,192.489014 310.745453,194.788284 310.958862,199.398849 
	C311.127228,203.035934 310.931549,206.688583 310.958588,210.333862 
	C310.980927,213.347092 309.846436,215.229340 306.539154,214.801453 
	C303.503815,214.408737 303.324646,212.694855 303.642670,209.817459 
	C304.109161,205.596313 303.491516,201.258820 303.385712,196.969666 
	C303.324860,194.502762 303.094727,191.997910 303.416382,189.573242 
	C303.938354,185.638626 306.324554,184.352890 310.124390,185.623718 
	C311.152710,185.967621 312.339081,186.368347 313.343201,186.174561 
	C324.937225,183.936844 327.350922,185.362045 330.746826,197.030411 
z"/>
	<path fill="#2CAEA5" opacity="1.000000" stroke="none" d="
M218.823456,194.985062 
	C220.878860,214.944519 207.436234,233.417297 189.488312,239.636993 
	C189.698944,235.840759 190.312332,232.391968 191.093521,228.637543 
	C201.084061,221.760269 207.816483,213.166214 209.501984,200.998734 
	C210.945984,199.783676 212.341934,198.755768 213.023575,197.375183 
	C214.337234,194.714462 215.569824,192.617371 218.823456,194.985062 
z"/>
	<path fill="#2CAEA5" opacity="1.000000" stroke="none" d="
M472.111694,208.359711 
	C471.628540,202.863831 471.265961,197.782059 470.903351,192.700272 
	C470.606781,192.844894 470.310211,192.989517 470.013641,193.134140 
	C468.888855,191.455826 467.764038,189.777496 466.639252,188.099167 
	C467.796600,187.360809 469.034943,186.718796 470.076965,185.843201 
	C470.592285,185.410187 471.062317,184.522919 471.014130,183.881668 
	C470.530243,177.440155 474.815063,177.589859 479.780792,177.808014 
	C479.898285,180.355530 480.016144,182.912033 480.120026,185.164352 
	C482.306427,187.982178 487.573181,181.707428 487.861298,188.093826 
	C488.106476,193.529175 483.344604,191.369217 480.279907,192.305038 
	C480.279907,197.311371 480.279907,202.392807 480.279907,207.815567 
	C481.722809,207.815567 483.311829,208.230850 484.528687,207.734192 
	C487.617767,206.473343 488.469482,208.512436 488.901520,210.592941 
	C489.364471,212.822372 489.024536,214.721909 485.843597,215.046875 
	C477.653320,215.883575 474.273438,214.468674 472.111694,208.359711 
z"/>
	<path fill="#9F2DD8" opacity="1.000000" stroke="none" d="
M145.045609,150.182281 
	C146.383926,149.756332 147.719589,148.972000 149.061005,148.962006 
	C158.490021,148.891830 167.920212,148.981171 177.207184,149.393951 
	C167.635529,149.768341 158.206726,149.768341 148.490128,149.768341 
	C149.684982,151.751022 150.437759,153.000137 151.190536,154.249252 
	C149.746475,154.877777 148.337830,155.617203 146.845322,156.094055 
	C145.919968,156.389694 144.658264,155.959229 143.916245,156.432617 
	C142.473175,157.353210 141.289536,158.680481 139.680847,159.906158 
	C138.933105,160.018631 138.502945,160.064224 137.701843,160.130402 
	C126.197952,163.224747 113.195473,180.900085 113.004471,193.261810 
	C112.952377,196.633026 112.996567,200.005722 112.996567,203.734528 
	C108.892746,203.007294 107.820572,200.420792 108.130951,197.485062 
	C108.857147,190.616409 109.970528,183.788696 110.927139,176.944397 
	C112.041893,174.397430 113.156639,171.850449 114.672707,169.331757 
	C116.695282,167.219055 118.316551,165.078079 119.937820,162.937103 
	C120.118835,162.664413 120.299843,162.391724 121.082336,162.014679 
	C122.851501,160.794037 124.019173,159.677765 125.186844,158.561478 
	C125.186844,158.561478 125.294464,158.281921 125.797501,158.329391 
	C132.548904,155.645325 138.797256,152.913803 145.045609,150.182281 
z"/>
	<path fill="#7C3EC5" opacity="1.000000" stroke="none" d="
M110.587906,177.089905 
	C109.970528,183.788696 108.857147,190.616409 108.130951,197.485062 
	C107.820572,200.420792 108.892746,203.007294 112.996567,203.734528 
	C112.996567,200.005722 112.952377,196.633026 113.004471,193.261810 
	C113.195473,180.900085 126.197952,163.224747 137.676331,160.489166 
	C136.671844,161.884979 135.396439,163.058441 133.960342,163.982025 
	C121.812302,171.794662 115.405983,182.991455 115.101013,197.326721 
	C114.932968,205.226059 118.210083,212.360001 122.282654,219.228729 
	C122.538582,219.522812 122.703590,219.670563 122.989410,219.833099 
	C123.094604,219.865326 123.164711,220.073898 123.243858,220.220581 
	C123.444633,220.555847 123.589645,220.724319 123.813965,221.160583 
	C123.916832,221.638245 123.963783,221.828033 124.010735,222.017807 
	C122.005386,226.712814 121.132309,226.850830 115.387817,223.257401 
	C115.067696,223.184570 114.862701,223.118881 114.818634,222.724762 
	C114.213936,221.662186 113.653313,220.993713 113.092682,220.325226 
	C111.225098,215.474716 109.082909,210.709290 107.548004,205.755692 
	C104.506577,195.939987 105.977753,186.424210 110.587906,177.089905 
z"/>
	<path fill="#7C3EC5" opacity="1.000000" stroke="none" d="
M139.998428,159.839294 
	C141.289536,158.680481 142.473175,157.353210 143.916245,156.432617 
	C144.658264,155.959229 145.919968,156.389694 146.845322,156.094055 
	C148.337830,155.617203 149.746475,154.877777 151.190536,154.249252 
	C150.437759,153.000137 149.684982,151.751022 148.490128,149.768341 
	C158.206726,149.768341 167.635529,149.768341 177.520538,149.669113 
	C182.412430,150.985382 186.848114,152.400894 191.354782,154.136292 
	C185.973099,155.427429 185.751053,155.981705 188.769882,160.719009 
	C189.100769,161.238235 189.120804,161.955566 188.996719,162.367706 
	C185.308838,161.103058 181.909225,160.051712 178.227722,158.769165 
	C168.890976,158.352066 159.836578,158.119415 150.780792,158.030258 
	C149.408798,158.016739 148.030228,158.670242 146.294434,159.253799 
	C143.955582,159.608032 141.977005,159.723663 139.998428,159.839294 
z"/>
	<path fill="#308EB3" opacity="1.000000" stroke="none" d="
M190.925720,228.943192 
	C190.312332,232.391968 189.698944,235.840759 189.127319,239.711838 
	C185.137527,241.098511 181.134125,242.722412 177.068863,242.895737 
	C167.336624,243.310699 157.575287,243.043167 147.458374,243.093491 
	C148.769745,242.076050 150.404755,240.937317 152.138702,239.977264 
	C154.113770,238.883667 156.177124,237.949448 158.202103,236.945938 
	C158.050674,236.466858 157.899231,235.987762 157.747803,235.508667 
	C154.712997,235.178070 151.678177,234.847473 148.750488,234.266235 
	C152.341675,234.005447 155.826782,233.934738 159.309570,233.996506 
	C170.152359,234.188782 181.025421,234.626633 190.925720,228.943192 
z"/>
	<path fill="#3C6BCC" opacity="1.000000" stroke="none" d="
M189.285004,162.581009 
	C189.120804,161.955566 189.100769,161.238235 188.769882,160.719009 
	C185.751053,155.981705 185.973099,155.427429 191.677338,154.314117 
	C203.036987,158.416992 210.220306,166.599884 215.005768,177.957047 
	C214.866241,180.474609 214.735275,182.215225 214.561737,184.521500 
	C211.983810,183.942932 209.964340,183.489700 207.965866,183.019424 
	C207.986847,183.002380 207.981323,183.056061 207.890182,182.860489 
	C207.652039,182.415085 207.474503,182.189255 207.101624,181.667755 
	C202.893799,174.273911 198.369110,167.638428 190.765625,163.496979 
	C190.247513,163.080612 189.835968,162.877335 189.368073,162.682983 
	C189.311752,162.691895 189.285004,162.581009 189.285004,162.581009 
z"/>
	<path fill="#1C2839" opacity="1.000000" stroke="none" d="
M366.786621,186.858841 
	C368.384064,186.589539 369.972321,186.222076 371.580872,186.071472 
	C374.874207,185.763138 378.178436,185.571243 381.478210,185.331390 
	C381.786285,184.778015 382.094360,184.224640 382.402435,183.671265 
	C383.801086,185.958435 385.199738,188.245605 387.095673,191.345932 
	C383.416595,191.799973 380.937714,191.437897 379.322906,192.451904 
	C376.450287,194.255753 373.785736,196.573807 373.993500,200.733673 
	C374.217285,205.214767 374.044067,209.715698 374.044067,214.807724 
	C371.889679,214.807724 369.648804,214.807724 367.283508,214.068176 
	C367.034973,204.505371 366.910797,195.682098 366.786621,186.858841 
z"/>
	<path fill="#2CAEA5" opacity="1.000000" stroke="none" d="
M456.936951,203.160400 
	C456.687653,198.160339 456.281647,193.589142 456.121033,189.009354 
	C456.080139,187.843414 456.790771,185.648132 457.202972,185.636841 
	C459.396759,185.576767 461.666870,185.855042 463.770874,186.483765 
	C464.387787,186.668106 464.849060,188.376862 464.867798,189.396408 
	C464.990143,196.063446 465.072540,202.735184 464.932465,209.400452 
	C464.894135,211.224792 464.489655,214.220581 463.482025,214.593185 
	C461.549347,215.307785 458.818787,215.037140 456.928101,214.122910 
	C456.157715,213.750397 456.668701,210.636566 456.677734,208.770355 
	C456.686096,207.041992 456.802551,205.314163 456.936951,203.160400 
z"/>
	<path fill="#308EB3" opacity="1.000000" stroke="none" d="
M207.944885,183.036469 
	C209.964340,183.489700 211.983810,183.942932 214.561737,184.521500 
	C214.735275,182.215225 214.866241,180.474609 215.016510,178.319473 
	C216.344299,183.311325 217.652802,188.717667 218.892365,194.554535 
	C215.569824,192.617371 214.337234,194.714462 213.023575,197.375183 
	C212.341934,198.755768 210.945984,199.783676 209.451599,200.590332 
	C208.668594,194.485336 208.306732,188.760895 207.944885,183.036469 
z"/>
	<path fill="#2CAEA5" opacity="1.000000" stroke="none" d="
M458.486023,182.699387 
	C455.096985,179.062759 455.087585,174.938095 458.237122,174.163406 
	C459.945526,173.743195 462.734589,173.561401 463.516968,174.516510 
	C464.657288,175.908585 465.348694,178.987976 464.537811,180.306168 
	C463.636810,181.770935 460.834015,182.065872 458.486023,182.699387 
z"/>
	<path fill="#7C3EC5" opacity="1.000000" stroke="none" d="
M144.647385,150.118042 
	C138.797256,152.913803 132.548904,155.645325 125.938660,158.279327 
	C130.926361,153.463364 137.444595,151.429672 144.647385,150.118042 
z"/>
	<path fill="#308EB3" opacity="1.000000" stroke="none" d="
M414.350830,214.745346 
	C414.039795,205.529160 414.068634,196.230591 414.145691,186.464233 
	C414.525543,186.532547 415.151245,187.072037 415.145050,187.604187 
	C415.040161,196.624313 414.856750,205.643539 414.350830,214.745346 
z"/>
	<path fill="#7C3EC5" opacity="1.000000" stroke="none" d="
M366.443237,187.122726 
	C366.910797,195.682098 367.034973,204.505371 366.996948,213.786621 
	C366.522034,209.735977 366.062927,205.231400 365.938171,200.717575 
	C365.815491,196.278809 366.032166,191.830643 366.443237,187.122726 
z"/>
	<path fill="#7C3EC5" opacity="1.000000" stroke="none" d="
M119.626404,163.054810 
	C118.316551,165.078079 116.695282,167.219055 114.977646,169.167114 
	C116.359184,167.040314 117.837082,165.106415 119.626404,163.054810 
z"/>
	<path fill="#7C3EC5" opacity="1.000000" stroke="none" d="
M124.917160,158.715134 
	C124.019173,159.677765 122.851501,160.794037 121.317444,161.927383 
	C122.183189,160.919235 123.415329,159.894012 124.917160,158.715134 
z"/>
	<path fill="#3C6BCC" opacity="1.000000" stroke="none" d="
M113.081169,220.605881 
	C113.653313,220.993713 114.213936,221.662186 114.787308,222.621796 
	C114.223251,222.237473 113.646454,221.562012 113.081169,220.605881 
z"/>
	<path fill="#000000" opacity="1.000000" stroke="none" d="
M207.965866,183.019424 
	C208.306732,188.760895 208.668594,194.485336 209.080826,200.618164 
	C207.816483,213.166214 201.084061,221.760269 191.093506,228.637543 
	C181.025421,234.626633 170.152359,234.188782 159.309570,233.996506 
	C155.826782,233.934738 152.341675,234.005447 148.385880,234.098572 
	C142.978180,235.755432 138.042206,237.329300 133.174805,238.881317 
	C132.897720,235.374878 133.542892,231.724609 132.158707,229.176880 
	C130.617477,226.340103 127.229332,224.506760 124.327957,222.127197 
	C123.963783,221.828033 123.916832,221.638245 123.853607,220.959015 
	C123.702988,220.184967 123.478783,220.053070 123.164711,220.073898 
	C123.164711,220.073898 123.094604,219.865326 122.953270,219.651947 
	C122.666664,219.200790 122.454727,219.087891 122.176117,219.099838 
	C118.210083,212.360001 114.932968,205.226059 115.101013,197.326721 
	C115.405983,182.991455 121.812302,171.794662 133.960342,163.982025 
	C135.396439,163.058441 136.671844,161.884979 138.047241,160.468582 
	C138.502945,160.064224 138.933105,160.018631 139.680847,159.906158 
	C141.977005,159.723663 143.955582,159.608032 146.682404,159.305420 
	C157.790314,159.079102 168.149979,159.039734 178.509628,159.000366 
	C181.909225,160.051712 185.308838,161.103058 188.996719,162.367706 
	C189.285004,162.581009 189.311752,162.691895 189.524872,162.863983 
	C190.116074,163.260712 190.494125,163.485382 190.872177,163.710052 
	C198.369110,167.638428 202.893799,174.273911 207.061356,181.917603 
	C207.451035,182.676773 207.716171,182.866409 207.981323,183.056061 
	C207.981323,183.056061 207.986847,183.002380 207.965866,183.019424 
M140.025986,185.786423 
	C139.989853,188.216064 139.953720,190.645691 139.287979,193.624664 
	C139.217743,200.760071 139.326370,207.903564 139.004349,215.027588 
	C138.834808,218.778168 141.166397,219.996323 143.783218,219.622055 
	C145.317093,219.402664 147.669540,216.870361 147.679565,215.365311 
	C147.735535,206.970642 147.188171,198.571945 146.974838,189.257858 
	C146.928192,187.139709 146.881546,185.021545 146.947174,182.068237 
	C146.957230,181.083252 147.327133,179.892258 146.904892,179.154785 
	C145.926620,177.446152 144.565262,175.956863 143.359222,174.378647 
	C142.252838,175.913605 140.674057,177.309448 140.169815,179.021729 
	C139.640686,180.818451 140.141678,182.918564 140.025986,185.786423 
M166.092484,202.463394 
	C166.092484,202.463394 166.080368,202.895859 165.509247,203.209000 
	C166.852493,207.139908 171.041641,206.768204 171.896820,204.865173 
	C173.514114,201.266296 173.782883,196.748001 173.385269,192.733246 
	C173.252594,191.393692 169.373138,190.425217 167.206451,189.287109 
	C166.636795,189.708511 166.067123,190.129913 165.497467,190.551331 
	C165.678696,194.378830 165.859924,198.206329 166.092484,202.463394 
M134.271545,193.162460 
	C133.977448,191.433014 134.186066,189.301636 133.227875,188.103149 
	C132.481049,187.169067 129.741959,186.652893 128.864990,187.291779 
	C127.739510,188.111679 127.397827,190.237411 127.086548,191.870712 
	C126.846260,193.131485 127.172844,194.500275 127.156487,196.746124 
	C127.149696,198.888992 127.322777,201.051392 127.092659,203.170013 
	C126.772118,206.121063 128.169189,206.921295 130.802826,206.917007 
	C133.281326,206.912964 135.149048,206.398895 134.892120,203.416534 
	C134.613892,200.187073 134.206589,196.968750 134.271545,193.162460 
M159.928635,184.347458 
	C158.413376,183.682449 156.085449,182.074646 155.544998,182.540512 
	C154.254150,183.653244 153.482178,185.675812 153.109604,187.458282 
	C152.746063,189.197617 153.138214,191.094910 153.082184,193.861404 
	C153.065765,198.505325 152.760010,203.177216 153.204300,207.776627 
	C153.342651,209.208710 155.419479,211.373306 156.775848,211.506836 
	C158.107056,211.637878 160.884262,209.633865 160.902939,208.530899 
	C161.035995,200.673264 160.624832,192.806396 159.928635,184.347458 
M184.039276,183.963486 
	C184.039276,183.963486 183.993637,183.947052 183.577118,183.276840 
	C179.453110,182.153564 177.945953,183.660583 177.989746,187.967300 
	C178.052856,194.173004 177.257339,200.391388 177.416412,206.589264 
	C177.454727,208.082718 179.553589,210.278687 181.147568,210.801315 
	C183.591461,211.602570 186.102005,211.007492 186.025665,207.271179 
	C185.888657,200.566696 186.025208,193.855988 185.836243,187.153854 
	C185.806244,186.090240 184.672928,185.057755 184.039276,183.963486 
M192.511429,203.765823 
	C196.820282,202.859406 200.098969,198.367615 198.661240,194.628922 
	C198.084503,193.129181 196.092606,191.552582 194.527069,191.285004 
	C193.574554,191.122192 191.331757,193.304352 191.203751,194.586411 
	C190.922012,197.408295 191.613861,200.327393 192.511429,203.765823 
z"/>
	<path fill="#000000" opacity="1.000000" stroke="none" d="
M402.470398,192.136276 
	C411.621796,198.041595 409.364624,203.758591 403.990356,206.692169 
	C401.984558,207.787048 397.782410,208.180984 396.737640,206.995117 
	C394.794098,204.789154 393.316895,201.013123 393.758484,198.225372 
	C394.123108,195.923508 397.469452,194.028336 399.649780,192.131378 
	C400.123505,191.719284 401.258942,192.067764 402.470398,192.136276 
z"/>
	<path fill="#000000" opacity="1.000000" stroke="none" d="
M278.384003,203.599091 
	C276.496246,198.998917 278.429718,195.595367 281.618958,193.427368 
	C283.201111,192.351837 286.343872,192.599228 288.370178,193.352371 
	C292.591034,194.921265 292.671967,199.148590 292.031342,202.587753 
	C291.667114,204.543045 289.314545,206.973953 287.350830,207.598862 
	C283.886597,208.701294 280.463409,207.598434 278.384003,203.599091 
z"/>
	<path fill="#000000" opacity="1.000000" stroke="none" d="
M345.321472,193.121246 
	C350.996094,191.344452 357.161987,194.720093 356.658020,199.730774 
	C356.385315,202.441971 353.715698,205.613129 351.241608,207.160675 
	C349.531281,208.230469 345.673767,207.703156 343.938873,206.372757 
	C342.261688,205.086655 341.280731,201.795700 341.462311,199.501633 
	C341.632263,197.354568 343.727570,195.359924 345.321472,193.121246 
z"/>
	<path fill="#3C6BCC" opacity="1.000000" stroke="none" d="
M122.282654,219.228729 
	C122.454727,219.087891 122.666664,219.200790 122.848083,219.619720 
	C122.703590,219.670563 122.538582,219.522812 122.282654,219.228729 
z"/>
	<path fill="#3C6BCC" opacity="1.000000" stroke="none" d="
M123.243858,220.220581 
	C123.478783,220.053070 123.702988,220.184967 123.797699,220.671127 
	C123.589645,220.724319 123.444633,220.555847 123.243858,220.220581 
z"/>
	<path fill="#9F2DD8" opacity="1.000000" stroke="none" d="
M178.227722,158.769165 
	C168.149979,159.039734 157.790314,159.079102 147.042694,159.066833 
	C148.030228,158.670242 149.408798,158.016739 150.780792,158.030258 
	C159.836578,158.119415 168.890976,158.352066 178.227722,158.769165 
z"/>
	<path fill="#7C3EC5" opacity="1.000000" stroke="none" d="
M190.765625,163.496979 
	C190.494125,163.485382 190.116074,163.260712 189.581207,162.855057 
	C189.835968,162.877335 190.247513,163.080612 190.765625,163.496979 
z"/>
	<path fill="#308EB3" opacity="1.000000" stroke="none" d="
M207.890182,182.860489 
	C207.716171,182.866409 207.451035,182.676773 207.226151,182.237274 
	C207.474503,182.189255 207.652039,182.415085 207.890182,182.860489 
z"/>
	<path fill="#3C6BCC" opacity="1.000000" stroke="none" d="
M146.847076,190.174637 
	C147.188171,198.571945 147.735535,206.970642 147.679565,215.365311 
	C147.669540,216.870361 145.317093,219.402664 143.783218,219.622055 
	C141.166397,219.996323 138.834808,218.778168 139.004349,215.027588 
	C139.326370,207.903564 139.217743,200.760071 139.968506,193.333679 
	C142.715042,192.086670 144.781067,191.130646 146.847076,190.174637 
z"/>
	<path fill="#308EB3" opacity="1.000000" stroke="none" d="
M184.049698,184.010880 
	C184.672928,185.057755 185.806244,186.090240 185.836243,187.153854 
	C186.025208,193.855988 185.888657,200.566696 186.025665,207.271179 
	C186.102005,211.007492 183.591461,211.602570 181.147568,210.801315 
	C179.553589,210.278687 177.454727,208.082718 177.416412,206.589264 
	C177.257339,200.391388 178.052856,194.173004 177.989746,187.967300 
	C177.945953,183.660583 179.453110,182.153564 183.410919,183.666443 
	C182.228027,185.584015 181.127579,187.069138 180.297455,188.692505 
	C180.190094,188.902466 181.480713,189.827271 182.123764,190.420959 
	C182.747116,188.769257 183.400070,187.127762 183.973816,185.459000 
	C184.124924,185.019547 184.031067,184.495880 184.049698,184.010880 
z"/>
	<path fill="#3C6BCC" opacity="1.000000" stroke="none" d="
M160.386856,184.942474 
	C160.624832,192.806396 161.035995,200.673264 160.902939,208.530899 
	C160.884262,209.633865 158.107056,211.637878 156.775848,211.506836 
	C155.419479,211.373306 153.342651,209.208710 153.204300,207.776627 
	C152.760010,203.177216 153.065765,198.505325 153.507004,193.386826 
	C158.920502,192.553467 159.719986,188.801666 160.386856,184.942474 
z"/>
	<path fill="#3C6BCC" opacity="1.000000" stroke="none" d="
M133.855591,193.745560 
	C134.206589,196.968750 134.613892,200.187073 134.892120,203.416534 
	C135.149048,206.398895 133.281326,206.912964 130.802826,206.917007 
	C128.169189,206.921295 126.772118,206.121063 127.092659,203.170013 
	C127.322777,201.051392 127.149696,198.888992 127.548157,196.273895 
	C129.911743,195.116287 131.883667,194.430923 133.855591,193.745560 
z"/>
	<path fill="#2CAEA5" opacity="1.000000" stroke="none" d="
M192.209900,203.486313 
	C191.613861,200.327393 190.922012,197.408295 191.203751,194.586411 
	C191.331757,193.304352 193.574554,191.122192 194.527069,191.285004 
	C196.092606,191.552582 198.084503,193.129181 198.661240,194.628922 
	C200.098969,198.367615 196.820282,202.859406 192.209900,203.486313 
z"/>
	<path fill="#308EB3" opacity="1.000000" stroke="none" d="
M166.041168,202.033829 
	C165.859924,198.206329 165.678696,194.378830 165.497467,190.551331 
	C166.067123,190.129913 166.636795,189.708511 167.206451,189.287109 
	C169.373138,190.425217 173.252594,191.393692 173.385269,192.733246 
	C173.782883,196.748001 173.514114,201.266296 171.896820,204.865173 
	C171.041641,206.768204 166.852493,207.139908 166.119553,203.131104 
	C168.276443,202.312057 170.896347,201.831223 171.152023,200.776993 
	C171.730972,198.389847 171.215942,195.712097 170.935562,193.175751 
	C170.902725,192.878845 169.298569,192.328003 168.866104,192.599884 
	C168.160309,193.043640 167.574066,194.009583 167.371765,194.858673 
	C166.808731,197.221924 166.469055,199.638382 166.041168,202.033829 
z"/>
	<path fill="#7C3EC5" opacity="1.000000" stroke="none" d="
M160.157745,184.644958 
	C159.719986,188.801666 158.920502,192.553467 153.565216,192.917557 
	C153.138214,191.094910 152.746063,189.197617 153.109604,187.458282 
	C153.482178,185.675812 154.254150,183.653244 155.544998,182.540512 
	C156.085449,182.074646 158.413376,183.682449 160.157745,184.644958 
z"/>
	<path fill="#9F2DD8" opacity="1.000000" stroke="none" d="
M140.192474,184.886078 
	C140.141678,182.918564 139.640686,180.818451 140.169815,179.021729 
	C140.674057,177.309448 142.252838,175.913605 143.359222,174.378647 
	C144.565262,175.956863 145.926620,177.446152 146.904892,179.154785 
	C147.327133,179.892258 146.957230,181.083252 146.560211,182.598602 
	C144.179672,183.714676 142.186066,184.300369 140.192474,184.886078 
z"/>
	<path fill="#7C3EC5" opacity="1.000000" stroke="none" d="
M134.063568,193.454010 
	C131.883667,194.430923 129.911743,195.116287 127.593605,195.811340 
	C127.172844,194.500275 126.846260,193.131485 127.086548,191.870712 
	C127.397827,190.237411 127.739510,188.111679 128.864990,187.291779 
	C129.741959,186.652893 132.481049,187.169067 133.227875,188.103149 
	C134.186066,189.301636 133.977448,191.433014 134.063568,193.454010 
z"/>
	<path fill="#3C6BCC" opacity="1.000000" stroke="none" d="
M166.066833,202.248611 
	C166.469055,199.638382 166.808731,197.221924 167.371765,194.858673 
	C167.574066,194.009583 168.160309,193.043640 168.866104,192.599884 
	C169.298569,192.328003 170.902725,192.878845 170.935562,193.175751 
	C171.215942,195.712097 171.730972,198.389847 171.152023,200.776993 
	C170.896347,201.831223 168.276443,202.312057 166.405121,202.974518 
	C166.080368,202.895859 166.092484,202.463394 166.066833,202.248611 
z"/>
	<path fill="#7C3EC5" opacity="1.000000" stroke="none" d="
M140.109222,185.336243 
	C142.186066,184.300369 144.179672,183.714676 146.504074,183.016190 
	C146.881546,185.021545 146.928192,187.139709 146.910965,189.716248 
	C144.781067,191.130646 142.715042,192.086670 140.283295,193.059021 
	C139.953720,190.645691 139.989853,188.216064 140.109222,185.336243 
z"/>
	<path fill="#3C6BCC" opacity="1.000000" stroke="none" d="
M184.044495,183.987183 
	C184.031067,184.495880 184.124924,185.019547 183.973816,185.459000 
	C183.400070,187.127762 182.747116,188.769257 182.123764,190.420959 
	C181.480713,189.827271 180.190094,188.902466 180.297455,188.692505 
	C181.127579,187.069138 182.228027,185.584015 183.619171,184.001556 
	C183.993637,183.947052 184.039276,183.963486 184.044495,183.987183 
z"/>
</svg>