<?xml version="1.0" standalone="no"?>
<!DOCTYPE svg PUBLIC "-//W3C//DTD SVG 20010904//EN"
 "http://www.w3.org/TR/2001/REC-SVG-20010904/DTD/svg10.dtd">
<svg version="1.0" xmlns="http://www.w3.org/2000/svg"
 width="612.000000pt" height="408.000000pt" viewBox="0 0 612.000000 408.000000"
 preserveAspectRatio="xMidYMid meet">

<g transform="translate(0.000000,408.000000) scale(0.100000,-0.100000)"
fill="#000000" stroke="none">
<path d="M1460 2579 c-93 -11 -145 -33 -227 -97 -204 -162 -220 -493 -33 -678
22 -21 40 -42 40 -46 0 -3 -18 -37 -40 -76 -67 -116 -54 -129 82 -81 51 18 98
35 103 39 36 25 118 40 224 41 74 0 109 4 96 9 -17 7 -17 9 -2 9 9 1 17 6 17
11 0 6 -8 10 -17 11 -12 1 -10 4 7 9 15 5 -31 8 -115 6 -121 -2 -148 -5 -195
-25 -137 -57 -146 -57 -111 0 12 19 21 43 21 53 0 11 -25 45 -55 77 -30 32
-68 86 -85 120 -93 197 -10 427 190 523 l65 31 190 0 190 0 65 -31 c104 -49
184 -137 210 -229 8 -29 18 -45 29 -45 14 0 14 -2 1 -10 -8 -5 -12 -12 -8 -15
3 -4 17 1 31 10 23 15 24 19 15 53 -41 153 -149 266 -300 316 -47 16 -295 25
-388 15z"/>
<path d="M1407 2333 c-4 -3 -7 -97 -7 -208 0 -174 2 -204 16 -216 34 -28 41 9
43 208 1 102 -1 195 -5 205 -5 18 -34 25 -47 11z"/>
<path d="M2448 2314 c-36 -19 -61 -68 -53 -103 9 -43 40 -69 103 -87 76 -21
102 -39 102 -69 0 -51 -68 -69 -151 -40 -34 12 -44 13 -51 3 -21 -34 13 -56
98 -65 97 -10 164 33 164 106 0 20 -7 46 -15 58 -14 20 -69 45 -128 58 -28 6
-67 37 -67 55 0 6 9 19 20 30 23 23 78 27 129 9 36 -13 36 -13 45 18 6 19 2
23 -31 32 -54 15 -133 13 -165 -5z"/>
<path d="M1537 2243 c-4 -3 -7 -61 -7 -129 0 -105 2 -123 17 -128 27 -11 33
13 33 142 0 112 -2 122 -18 122 -10 0 -22 -3 -25 -7z"/>
<path d="M1790 2235 c-13 -16 -8 -162 7 -201 4 -12 3 -15 -5 -10 -7 4 -10 2
-6 -7 6 -18 34 -18 34 0 0 8 5 11 10 8 15 -9 13 198 -2 213 -16 16 -23 15 -38
-3z"/>
<path d="M2771 2212 c-123 -66 -72 -262 67 -262 82 0 142 59 142 140 0 111
-110 175 -209 122z m129 -54 c52 -56 13 -158 -61 -158 -69 0 -105 94 -58 154
27 34 88 37 119 4z"/>
<path d="M3036 2213 c-4 -9 -6 -70 -5 -135 l1 -118 29 0 29 0 0 90 c0 77 3 93
21 111 14 14 30 19 57 17 49 -4 62 -31 62 -135 0 -82 0 -83 25 -83 l25 0 0
106 c0 103 -1 106 -29 135 -33 33 -87 39 -133 15 -23 -12 -27 -12 -32 0 -7 19
-42 18 -50 -3z"/>
<path d="M3415 2221 c-85 -37 -107 -154 -43 -226 95 -109 276 -7 239 133 -17
60 -60 95 -123 99 -29 1 -62 -1 -73 -6z m120 -66 c55 -55 16 -155 -60 -155
-51 0 -85 36 -85 90 0 54 34 90 85 90 25 0 44 -8 60 -25z"/>
<path d="M3670 2095 l0 -135 25 0 c25 0 25 1 25 85 0 78 2 88 25 110 15 16 36
25 55 25 25 0 30 4 30 25 0 21 -5 25 -28 25 -16 0 -37 -7 -48 -15 -25 -19 -34
-19 -34 0 0 9 -9 15 -25 15 l-25 0 0 -135z"/>
<path d="M3923 2215 c-36 -15 -73 -78 -73 -122 1 -105 104 -172 193 -127 21
12 32 13 35 5 2 -6 15 -11 28 -11 l25 0 -3 133 c-3 128 -4 132 -25 135 -16 2
-23 -2 -23 -12 0 -20 -1 -20 -36 -1 -36 18 -79 19 -121 0z m127 -55 c58 -58
22 -160 -57 -160 -76 0 -113 101 -58 155 31 31 86 34 115 5z"/>
<path d="M1277 2213 c-4 -3 -7 -44 -7 -90 0 -68 3 -85 16 -90 27 -10 44 25 44
93 0 34 -3 69 -6 78 -6 16 -35 22 -47 9z"/>
<path d="M1663 2164 c-11 -28 -8 -93 4 -105 7 -7 19 -9 28 -5 24 9 17 119 -8
124 -9 2 -20 -4 -24 -14z"/>
</g>
</svg>
